<?xml version="1.0" encoding="utf-8"?>
<!-- Generator: Adobe Illustrator 24.3.0, SVG Export Plug-In . SVG Version: 6.00 Build 0)  -->
<svg version="1.1" id="Layer_1" xmlns="http://www.w3.org/2000/svg" xmlns:xlink="http://www.w3.org/1999/xlink" x="0px" y="0px"
	 viewBox="0 0 405 550" style="enable-background:new 0 0 405 550;" xml:space="preserve">
<style type="text/css">
	.st0{fill:#FFB309;}
	.st1{stroke:#000000;stroke-width:2;stroke-miterlimit:10;}
</style>
<g>
	<g transform="translate(0.000000,550.000000) scale(0.100000,-0.100000)">
		<path d="M3040.6,5181c-548,170-1007,311-1021,312c-14,2-194-51-400-117c-206-66-539-172-740-235c-591-187-864-274-866-277
			c-3-2,26-130,30-134c2-2,28,6,59,16l57,20v-239h80V227h190V7h380v220h2400V7h390v220h180v4300h90v125c0,69,2,125,3,125
			c2,0,29-9,60-19c63-22,54-28,87,64l17,50L3040.6,5181z M789.6,27h-340v200h340V27z M3579.6,27h-350v200h350V27z M3759.6,247h-3500
			v110h3500V247z M3759.6,377h-3500v1370h3500V377z M3759.6,1767h-3500v1370h3500V1767z M3759.6,3157h-3500v1370h3500V3157z
			 M3849.6,4547h-3670v80h3670V4547z M179.6,4647v64c0,62,1,65,28,71c15,3,427,138,917,299c868,286,891,292,930,280
			c22-6,382-123,800-259c418-136,812-264,875-284l115-37l6-134H179.6z M3999.6,4813c-10-28-22-50-26-50c-5,1-443,142-974,313
			c-531,171-974,311-984,311c-16,0-373-116-1726-562c-118-39-220-73-226-75c-10-4-39,96-30,104c3,3,386,126,853,273
			c466,148,910,289,987,313c130,42,141,44,180,32c22-7,455-141,961-298c506-157,939-291,961-297l42-13L3999.6,4813z"/>
		<path d="M2032.6,5196c-29,15-30,15-59-14c-18-19-23-31-19-48c15-47,61-61,95-27C2081.6,5139,2074.6,5173,2032.6,5196z
			 M2047.6,5135c-6-42-78-32-78,11c0,37,46,55,70,27C2045.6,5165,2049.6,5148,2047.6,5135z"/>
	</g>
	<path class="st0" d="M384.5,71.9L373,68.2c-6.3-2-45.7-14.8-87.5-28.4s-77.8-25.3-80-25.9c-3.9-1.2-6.2-0.6-93,28
		C63.5,58,22.3,71.5,20.8,71.8c-2.7,0.6-2.8,0.9-2.8,7.1v6.4h367.1L384.5,71.9z M205,39.3c-3.4,3.4-8,2-9.5-2.7
		c-0.4-1.7,0.1-2.9,1.9-4.8c2.9-2.9,3-2.9,5.9-1.4C207.5,32.7,208.2,36.1,205,39.3z"/>
	<path d="M203.3,30.4c-2.9-1.5-3-1.5-5.9,1.4c-1.8,1.9-2.3,3.1-1.9,4.8c1.5,4.7,6.1,6.1,9.5,2.7C208.2,36.1,207.5,32.7,203.3,30.4z
		 M204.8,36.5c-0.6,4.2-7.8,3.2-7.8-1.1c0-3.7,4.6-5.5,7-2.7C204.6,33.5,205,35.2,204.8,36.5z"/>
	<rect x="18" y="87.3" class="st0" width="367" height="8"/>
	<rect x="45" y="527.3" class="st0" width="34" height="20"/>
	<rect x="323" y="527.3" class="st0" width="35" height="20"/>
	<rect x="26" y="514.3" class="st0" width="350" height="11"/>
	<rect x="26" y="375.3" class="st0" width="350" height="137"/>
	<rect x="26" y="236.3" class="st0" width="350" height="137"/>
	<rect x="26" y="97.3" class="st0" width="350" height="137"/>
	<path class="st0" d="M401.8,63.6l-1.8,5.1c-1,2.8-2.2,5-2.6,5c-0.5-0.1-44.3-14.2-97.4-31.3c-53.1-17.1-97.4-31.1-98.4-31.1
		c-1.6,0-37.3,11.6-172.6,56.2C17.2,71.4,7,74.8,6.4,75c-1,0.4-3.9-9.6-3-10.4C3.7,64.3,42,52,88.7,37.3
		c46.6-14.8,91-28.9,98.7-31.3c13-4.2,14.1-4.4,18-3.2c2.2,0.7,45.5,14.1,96.1,29.8s93.9,29.1,96.1,29.7L401.8,63.6z"/>
	<path class="st1" d="M304.1,31.9C249.3,14.9,203.4,0.8,202,0.7c-1.4-0.2-19.4,5.1-40,11.7c-20.6,6.6-53.9,17.2-74,23.5
		C28.9,54.6,1.6,63.3,1.4,63.6c-0.3,0.2,2.6,13,3,13.4c0.2,0.2,2.8-0.6,5.9-1.6l5.7-2v23.9h8v430h19v22h38v-22h240v22h39v-22h18
		v-430h9V84.8c0-6.9,0.2-12.5,0.3-12.5c0.2,0,2.9,0.9,6,1.9c6.3,2.2,5.4,2.8,8.7-6.4l1.7-5L304.1,31.9z M79,547.3H45v-20h34V547.3z
		 M358,547.3h-35v-20h35V547.3z M376,525.3H26v-11h350V525.3z M376,512.3H26v-137h350V512.3z M376,373.3H26v-137h350V373.3z
		 M376,234.3H26v-137h350V234.3z M385,95.3H18v-8h367V95.3z M18,85.3v-6.4c0-6.2,0.1-6.5,2.8-7.1c1.5-0.3,42.7-13.8,91.7-29.9
		c86.8-28.6,89.1-29.2,93-28c2.2,0.6,38.2,12.3,80,25.9s81.2,26.4,87.5,28.4l11.5,3.7l0.6,13.4H18z M400,68.7c-1,2.8-2.2,5-2.6,5
		c-0.5-0.1-44.3-14.2-97.4-31.3c-53.1-17.1-97.4-31.1-98.4-31.1c-1.6,0-37.3,11.6-172.6,56.2C17.2,71.4,7,74.8,6.4,75
		c-1,0.4-3.9-9.6-3-10.4C3.7,64.3,42,52,88.7,37.3c46.6-14.8,91-28.9,98.7-31.3c13-4.2,14.1-4.4,18-3.2c2.2,0.7,45.5,14.1,96.1,29.8
		s93.9,29.1,96.1,29.7l4.2,1.3L400,68.7z"/>
</g>
</svg>
