<svg xmlns="http://www.w3.org/2000/svg" width="14.519" height="19.341" viewBox="0 0 14.519 19.341">
  <path id="Path_23" data-name="Path 23" d="M-1868.48-1608.394a1.015,1.015,0,0,1,.49.462,51.3,51.3,0,0,0,3.391,4.647,20.421,20.421,0,0,1,2.489,3.839,7.312,7.312,0,0,1,.729,3.491,7.181,7.181,0,0,1-1.308,3.8,7.146,7.146,0,0,1-3.024,2.484,7.092,7.092,0,0,1-3.514.59,7.138,7.138,0,0,1-4.037-1.65,7.159,7.159,0,0,1-2.432-3.922,7.159,7.159,0,0,1,.535-4.778,19.119,19.119,0,0,1,2.246-3.525c1.007-1.329,2.074-2.612,3.012-3.992q.3-.445.581-.9a1.321,1.321,0,0,1,.5-.541Zm2.826,8.456a.652.652,0,0,0-.457.251q-2.943,2.946-5.888,5.889a1.438,1.438,0,0,0-.14.153.6.6,0,0,0,.233.907.6.6,0,0,0,.72-.164q2.986-2.983,5.969-5.969a.831.831,0,0,0,.119-.146.568.568,0,0,0,.018-.609A.6.6,0,0,0-1865.653-1599.938Zm-4.79-1.209a1.81,1.81,0,0,0-1.813,1.812,1.805,1.805,0,0,0,1.818,1.81,1.821,1.821,0,0,0,1.807-1.8A1.821,1.821,0,0,0-1870.443-1601.147Zm3.635,6.049a1.826,1.826,0,0,0-1.822,1.809,1.834,1.834,0,0,0,1.816,1.818,1.829,1.829,0,0,0,1.81-1.8A1.822,1.822,0,0,0-1866.808-1595.1Z" transform="translate(1875.889 1608.394)" fill="#313131"/>
</svg>
