<svg xmlns="http://www.w3.org/2000/svg" width="13.531" height="21.67" viewBox="0 0 13.531 21.67">
  <g id="Group_10" data-name="Group 10" transform="translate(2842.858 1494.6)">
    <path id="Path_24" data-name="Path 24" d="M-2840.142-1487.86c0-1.393,0-2.787,0-4.18a3.207,3.207,0,0,1,.1-.823,2.174,2.174,0,0,1,.318-.587,2.946,2.946,0,0,1,.347-.411,2.035,2.035,0,0,1,.343-.293,4.484,4.484,0,0,1,.6-.337,1.216,1.216,0,0,1,.435-.1c.33-.015.661-.013.992,0a1.8,1.8,0,0,1,.969.363,2.618,2.618,0,0,1,.311.21,3.086,3.086,0,0,1,.422.454,2.583,2.583,0,0,1,.356.633,2.6,2.6,0,0,1,.159.82c.011,2.94.008,5.879.006,8.819a.337.337,0,0,0,.217.374,3.514,3.514,0,0,1,.735.567,5.03,5.03,0,0,1,.582.6,3.211,3.211,0,0,1,.474.694c.118.266.276.514.411.773a1.092,1.092,0,0,1,.048.181,3.731,3.731,0,0,1,.237,1.124c0,.5.01,1.005-.015,1.507a3.38,3.38,0,0,1-.157.643c-.028.108-.052.217-.087.322a2.636,2.636,0,0,1-.128.327,8.14,8.14,0,0,1-.387.756,6.041,6.041,0,0,1-.465.6,3.879,3.879,0,0,1-.363.413,7.353,7.353,0,0,1-.622.512c-.228.167-.469.317-.708.469a.744.744,0,0,1-.177.058c-.258.081-.524.144-.774.246a6.015,6.015,0,0,1-2.372.168,2.407,2.407,0,0,1-.578-.161c-.067-.018-.143-.006-.208-.027a5.477,5.477,0,0,1-.746-.27,5.4,5.4,0,0,1-.662-.439c-.181-.128-.36-.259-.529-.4a4.363,4.363,0,0,1-.456-.432c-.174-.195-.332-.4-.488-.614a2.241,2.241,0,0,1-.247-.4c-.123-.269-.218-.552-.341-.821a3.611,3.611,0,0,1-.269-1.537,10.953,10.953,0,0,1,.028-1.144,3.734,3.734,0,0,1,.212-.814,6.106,6.106,0,0,1,.377-.908,5.9,5.9,0,0,1,.553-.811,4.794,4.794,0,0,1,.546-.581c.186-.17.4-.312.6-.464a2.3,2.3,0,0,0,.307-.228.388.388,0,0,0,.089-.244C-2840.141-1484.793-2840.142-1486.326-2840.142-1487.86Zm4.093.707c0-1.5,0-3,0-4.505a1.768,1.768,0,0,0-.083-.623,1.283,1.283,0,0,0-.491-.729,1.212,1.212,0,0,0-.281-.164,2.539,2.539,0,0,0-.66-.135,2.291,2.291,0,0,0-.5.149,1.068,1.068,0,0,0-.588.522,1.4,1.4,0,0,0-.216.8q.011,4.715,0,9.43a.606.606,0,0,1,0,.152.181.181,0,0,1-.074.1c-.237.131-.474.264-.718.38a2.546,2.546,0,0,0-.779.64c-.131.145-.251.3-.373.452a1.663,1.663,0,0,0-.195.275c-.082.162-.135.339-.217.5a2.885,2.885,0,0,0-.291,1.054.458.458,0,0,1-.006.076,3.451,3.451,0,0,0,.152,1.695,1.425,1.425,0,0,0,.087.3,5.154,5.154,0,0,0,.271.488,3.767,3.767,0,0,0,.4.594c.215.231.48.413.7.636a2.713,2.713,0,0,0,.927.559,5.746,5.746,0,0,0,1.055.221,1.343,1.343,0,0,0,.187.029,2.8,2.8,0,0,0,.491.01,7.607,7.607,0,0,0,.933-.168,3.983,3.983,0,0,0,.812-.293,4.158,4.158,0,0,0,.6-.438,4.572,4.572,0,0,0,.725-.734,4.77,4.77,0,0,0,.648-1.283c.082-.195.074-.424.137-.629a4.044,4.044,0,0,0-.019-1.394.228.228,0,0,0-.026-.068q-.1-.241-.2-.481a3.231,3.231,0,0,0-.3-.729,5.641,5.641,0,0,0-.8-.934,4.169,4.169,0,0,0-1.125-.687c-.139-.06-.191-.119-.191-.268Q-2836.046-1484.748-2836.049-1487.153Z" transform="translate(0)"/>
    <path id="Path_25" data-name="Path 25" d="M-2592.306-1369.852c-.477,0-.955-.012-1.431,0a.541.541,0,0,1-.533-.355.66.66,0,0,1,.045-.611.6.6,0,0,1,.585-.316c.9,0,1.794,0,2.691,0,.423,0,.608.194.628.621a.569.569,0,0,1-.218.554.621.621,0,0,1-.316.095c-.483.01-.967,0-1.45,0Z" transform="translate(-239.027 -118.748)"/>
    <path id="Path_26" data-name="Path 26" d="M-2592.1-1297.842c-.483,0-.967,0-1.45,0a.621.621,0,0,1-.544-.546.627.627,0,0,1,.334-.679.643.643,0,0,1,.278-.042q1.393,0,2.786,0c.4,0,.568.187.6.58a.614.614,0,0,1-.314.637.5.5,0,0,1-.235.051c-.483,0-.967,0-1.45,0Z" transform="translate(-239.24 -188.011)"/>
    <path id="Path_27" data-name="Path 27" d="M-2592.206-1440.63c-.458,0-.917-.023-1.374.006a.659.659,0,0,1-.62-.863.644.644,0,0,1,.517-.417c.986-.005,1.972,0,2.958,0a.534.534,0,0,1,.475.361.743.743,0,0,1-.227.834.467.467,0,0,1-.259.076c-.49.007-.98,0-1.47,0Z" transform="translate(-239.129 -50.678)"/>
    <path id="Path_28" data-name="Path 28" d="M-2574.6-1227.023c-.356,0-.713-.016-1.068,0a.611.611,0,0,1-.6-.586.619.619,0,0,1,.687-.693c.679.024,1.361.022,2.041,0a.566.566,0,0,1,.585.561c-.007.212.02.437-.189.572a.755.755,0,0,1-.349.136C-2573.867-1227.012-2574.236-1227.023-2574.6-1227.023Z" transform="translate(-256.388 -256.117)"/>
    <path id="Path_29" data-name="Path 29" d="M-2786.331-1297.3q0,1.164,0,2.329c0,.212.075.272.277.318a1.992,1.992,0,0,1,.826.341c.243.191.514.353.735.566a3.474,3.474,0,0,1,.417.584c.066.1.113.21.186.3.144.179.127.408.206.6a3.316,3.316,0,0,1,.1,1.086,2.744,2.744,0,0,1-.231,1.1,3.457,3.457,0,0,1-.562.837,2.051,2.051,0,0,1-.425.468,5.757,5.757,0,0,1-.794.431c-.155.076-.327.114-.485.185a3.213,3.213,0,0,1-1.6.082,2.545,2.545,0,0,1-.814-.318,2.852,2.852,0,0,1-1.015-.748,5.742,5.742,0,0,1-.494-.8,3.3,3.3,0,0,1-.276-2.169,1.7,1.7,0,0,1,.43-1.007,1.189,1.189,0,0,0,.207-.339,1.716,1.716,0,0,1,.673-.651,3.068,3.068,0,0,1,.431-.308c.24-.107.5-.16.748-.257a.453.453,0,0,0,.179-.2c.025-.043.006-.112.006-.169q0-2.271,0-4.543a.651.651,0,0,1,.971-.581.534.534,0,0,1,.3.494c-.009.789,0,1.578,0,2.367Z" transform="translate(-50.512 -186.926)"/>
  </g>
</svg>
