<svg xmlns="http://www.w3.org/2000/svg" width="20.357" height="17.685" viewBox="0 0 20.357 17.685">
  <path id="Path_30" data-name="Path 30" d="M-2280.068-2961.517h4.257a1.338,1.338,0,0,1,1.4,1.177q.558,2.947,1.124,5.891.419,2.188.835,4.379a1.325,1.325,0,0,1-1.254,1.55c-.062,0-.123,0-.185,0q-8.745,0-17.489,0a1.334,1.334,0,0,1-1.219-.644,1.391,1.391,0,0,1-.146-1.061q.8-4,1.6-7.993c.148-.742.293-1.484.445-2.226a1.326,1.326,0,0,1,1.324-1.077q1.849,0,3.7,0h.151a3.138,3.138,0,0,1-.258-2.492,3.046,3.046,0,0,1,1.134-1.583,3.123,3.123,0,0,1,3.681-.019,3.044,3.044,0,0,1,1.232,1.873A3.131,3.131,0,0,1-2280.068-2961.517Zm-4.95-1.546a2.223,2.223,0,0,0,2.237,2.214,2.221,2.221,0,0,0,2.2-2.232,2.223,2.223,0,0,0-2.223-2.2A2.225,2.225,0,0,0-2285.018-2963.063Zm6.577,8.667c0,.26,0,.506,0,.753a.121.121,0,0,1-.06.083,2.657,2.657,0,0,1-1.511.308,1.376,1.376,0,0,1-1.213-.92,2.574,2.574,0,0,1-.124-1.209,2.068,2.068,0,0,1,.068-.34,1.473,1.473,0,0,1,1.708-1.084,1.133,1.133,0,0,1,.842.492c.063.088.126.176.189.263a.507.507,0,0,0,.584.192.46.46,0,0,0,.293-.633,1.462,1.462,0,0,0-.836-.853,3.2,3.2,0,0,0-2.46-.036,2.128,2.128,0,0,0-1.357,1.464,3.082,3.082,0,0,0-.083,1.41,2.251,2.251,0,0,0,1.582,1.892,3.525,3.525,0,0,0,1.6.12,3.887,3.887,0,0,0,1.371-.471.593.593,0,0,0,.372-.519c.006-.394.012-.788,0-1.181a.444.444,0,0,0-.435-.468,1.429,1.429,0,0,0-.219-.018q-.631,0-1.263,0a.69.69,0,0,0-.2.032.364.364,0,0,0-.256.372.311.311,0,0,0,.284.314,1.806,1.806,0,0,0,.345.035C-2278.967-2954.393-2278.709-2954.4-2278.441-2954.4Zm-7.708-.863-.041-.024v-.124c0-.506,0-1.012,0-1.518a1.6,1.6,0,0,0-.011-.2.5.5,0,0,0-.525-.477.486.486,0,0,0-.512.462,1.077,1.077,0,0,0-.01.173q0,1.883,0,3.767a2.338,2.338,0,0,0,.013.277.491.491,0,0,0,.513.46.49.49,0,0,0,.518-.457,1.568,1.568,0,0,0,.014-.208c0-.293,0-.587,0-.881a.244.244,0,0,1,.068-.156c.232-.221.471-.435.708-.651.025-.022.051-.042.082-.068.029.042.054.075.077.11q.671.994,1.341,1.988a.677.677,0,0,0,.8.3.384.384,0,0,0,.289-.48,1.988,1.988,0,0,0-.267-.531c-.265-.385-.548-.756-.824-1.134l-.686-.937c.034-.028.065-.05.093-.076q.585-.527,1.168-1.057a1.056,1.056,0,0,0,.183-.208.431.431,0,0,0-.3-.677.594.594,0,0,0-.558.181c-.369.368-.742.732-1.11,1.1C-2285.472-2955.958-2285.809-2955.607-2286.149-2955.259Z" transform="translate(2292.783 2966.201)" fill="#313131"/>
</svg>
